<svg width="601" height="506" viewBox="0 0 601 506" fill="none" xmlns="http://www.w3.org/2000/svg">
<path d="M307.943 264.549L288.443 420.349C288.243 422.049 289.543 423.549 291.243 423.549C292.643 423.549 293.843 422.548 294.043 421.148L316.343 268.449L307.943 264.549Z" fill="#B8D8C7"/>
<path d="M368.543 286.849L388.043 442.648C388.243 444.348 386.943 445.849 385.243 445.849C383.843 445.849 382.643 444.849 382.443 443.449L360.143 290.749L368.543 286.849Z" fill="#B8D8C7"/>
<path d="M273.943 280.749L247.743 435.549C247.443 437.249 248.743 438.749 250.443 438.849C251.843 438.949 253.043 437.949 253.343 436.549L282.243 284.949L273.943 280.749Z" fill="#B8D8C7"/>
<path d="M347.343 265.249L361.743 421.549C361.943 423.249 363.543 424.449 365.143 424.049C366.543 423.749 367.443 422.449 367.343 421.148L356.443 267.149L347.343 265.249Z" fill="#B8D8C7"/>
<path d="M389.043 126.148C378.143 124.348 342.043 250.749 342.043 250.749H376.743C376.743 250.749 359.743 271.048 359.143 272.948C358.543 274.848 352.343 300.548 352.343 300.548C393.843 287.348 384.643 250.648 384.643 250.648C375.743 223.148 388.143 187.948 393.443 158.848C398.743 129.648 389.043 126.148 389.043 126.148Z" fill="#FFE779"/>
<path d="M260.443 293.849C260.443 293.849 261.343 307.549 297.043 309.549C332.743 311.549 378.743 308.049 384.743 267.549C384.843 267.549 267.643 282.449 260.443 293.849Z" fill="#FFE779"/>
<path d="M375.943 247.949C366.243 212.549 403.743 133.449 389.143 126.049C374.143 118.549 316.543 121.649 301.043 135.049C286.543 147.649 279.943 241.048 279.143 252.848C279.043 253.248 279.043 253.649 279.043 254.049C279.043 261.049 278.043 272.849 272.943 276.549C263.043 283.749 246.743 294.649 277.943 302.649C277.943 302.649 291.443 305.749 329.943 304.149C382.043 301.949 376.843 269.849 376.743 250.649C376.743 249.749 376.443 248.849 375.943 247.949Z" fill="white"/>
<path d="M236.742 427.549C236.742 427.549 241.142 448.549 242.142 450.249C243.142 451.949 250.642 455.649 260.842 452.649C271.042 449.549 271.342 445.849 271.342 445.849C271.342 445.849 269.342 421.749 269.342 419.049C269.242 416.349 235.042 411.549 236.742 427.549Z" fill="#B28D93"/>
<path d="M270.342 434.349C269.842 427.749 269.242 420.449 269.242 419.049C269.242 416.349 234.942 411.549 236.642 427.549C236.642 427.549 237.342 430.749 238.142 434.749C248.942 437.649 260.042 437.449 270.342 434.349Z" fill="#896068"/>
<path d="M241.043 446.649C241.043 446.649 239.843 448.549 239.843 458.449C239.843 468.349 224.843 490.749 225.843 496.849C226.843 502.949 269.043 504.449 272.843 499.949C276.643 495.349 272.643 462.249 272.943 458.749C273.143 455.149 274.543 448.649 271.143 444.449C271.143 444.449 267.643 447.949 264.843 448.549C262.043 449.149 259.443 443.449 253.943 442.449C248.443 441.449 244.843 447.949 244.243 448.549C243.643 449.149 241.243 448.349 241.043 446.649Z" fill="#22272E"/>
<path d="M242.843 470.049C242.843 470.049 251.343 464.149 264.843 470.849" stroke="white" stroke-width="1.8" stroke-miterlimit="10" stroke-linecap="round" stroke-linejoin="round"/>
<path d="M239.542 479.449C239.542 479.449 251.342 471.148 264.942 481.148" stroke="white" stroke-width="1.8" stroke-miterlimit="10" stroke-linecap="round" stroke-linejoin="round"/>
<path d="M345.442 438.949C345.442 438.949 352.242 457.948 355.942 461.348C359.642 464.748 369.542 465.048 376.342 461.348C383.142 457.648 382.842 452.049 382.842 452.049C382.842 452.049 376.942 420.948 375.642 420.148C374.242 419.248 345.442 429.849 345.442 438.949Z" fill="#B28D93"/>
<path d="M345.442 438.949C345.442 438.949 347.142 443.648 349.242 448.848C360.842 450.848 370.942 446.948 380.742 441.348C378.942 432.248 376.442 420.648 375.642 420.148C374.242 419.248 345.442 429.849 345.442 438.949Z" fill="#896068"/>
<path d="M352.842 456.049C352.842 456.049 351.942 456.349 354.542 464.749C355.842 469.249 341.442 492.349 341.742 498.049C342.042 503.749 354.042 504.749 363.542 505.049C378.042 505.449 387.542 502.549 388.342 493.249C389.142 483.949 386.642 465.849 386.642 461.849C386.642 457.849 385.342 453.249 382.042 447.849C382.042 447.849 382.342 455.349 379.342 456.749C376.342 458.249 370.742 452.749 366.442 453.849C362.142 454.949 360.342 458.248 358.542 460.148C356.742 461.948 353.342 457.149 352.842 456.049Z" fill="#22272E"/>
<path d="M357.242 475.449C357.242 475.449 365.042 467.649 378.742 473.649" stroke="white" stroke-width="1.8" stroke-miterlimit="10" stroke-linecap="round" stroke-linejoin="round"/>
<path d="M352.942 484.349C352.942 484.349 365.242 474.149 378.642 483.549" stroke="white" stroke-width="1.8" stroke-miterlimit="10" stroke-linecap="round" stroke-linejoin="round"/>
<path d="M275.243 248.649C275.243 248.649 229.343 273.949 217.243 297.149C205.143 320.349 224.043 394.249 223.743 409.849C223.443 425.449 225.443 427.749 234.143 431.049C242.843 434.349 261.743 433.649 269.643 427.749C279.843 420.149 275.143 406.249 272.843 389.449C270.543 372.749 269.443 323.049 269.443 323.049C269.443 323.049 291.043 305.549 301.643 300.349C303.743 299.249 306.043 298.849 308.143 298.649C311.443 298.449 313.843 301.549 312.943 304.649C310.343 313.849 306.643 336.949 308.143 347.549C309.543 357.449 316.443 381.949 329.943 423.449C332.643 431.649 333.543 438.249 336.843 441.049C350.743 452.749 380.942 440.249 384.142 429.349C385.442 424.849 382.143 409.549 377.842 392.849C371.742 368.949 363.542 342.149 364.142 339.249C365.142 334.349 378.042 289.349 374.642 269.149C366.442 220.249 328.543 239.949 275.243 248.649Z" fill="#22272E"/>
<path d="M231.642 327.749C239.982 327.749 246.742 320.361 246.742 311.249C246.742 302.136 239.982 294.749 231.642 294.749C223.303 294.749 216.542 302.136 216.542 311.249C216.542 320.361 223.303 327.749 231.642 327.749Z" stroke="#63737A" stroke-width="1.8" stroke-miterlimit="10" stroke-linecap="round" stroke-linejoin="round"/>
<path d="M331.729 364.192C340.264 363.018 346.171 354.704 344.923 345.621C343.674 336.539 335.742 330.127 327.207 331.3C318.671 332.474 312.764 340.788 314.013 349.871C315.262 358.953 323.193 365.365 331.729 364.192Z" stroke="#63737A" stroke-width="1.8" stroke-miterlimit="10" stroke-linecap="round" stroke-linejoin="round"/>
<path d="M269.442 323.049C269.442 323.049 268.842 316.849 266.942 313.549" stroke="#63737A" stroke-width="1.8" stroke-miterlimit="10" stroke-linecap="round" stroke-linejoin="round"/>
<path d="M309.442 298.348C309.442 298.348 310.542 291.448 308.742 289.448" stroke="#63737A" stroke-width="1.8" stroke-miterlimit="10" stroke-linecap="round" stroke-linejoin="round"/>
<path d="M297.042 290.249C297.042 290.249 304.443 289.649 320.443 290.249" stroke="#63737A" stroke-width="1.8" stroke-miterlimit="10" stroke-linecap="round" stroke-linejoin="round"/>
<path d="M281.143 146.948C281.143 146.948 275.343 149.048 266.343 162.648C257.643 175.748 249.843 183.948 249.843 183.948C249.843 183.948 239.543 172.648 228.743 165.448C217.943 158.248 205.643 146.948 205.643 146.948C205.643 146.948 197.543 142.548 192.443 148.548C187.343 154.448 189.943 163.248 189.943 163.248C189.943 163.248 202.043 179.648 219.843 201.048C231.443 215.048 243.243 225.048 253.143 221.948C266.343 217.848 292.343 194.248 296.843 184.848C301.243 175.348 297.943 143.548 281.143 146.948Z" fill="#6DAFA7"/>
<path d="M249.743 183.948C249.743 183.948 253.343 188.348 255.043 193.848" stroke="#22272E" stroke-width="1.8" stroke-miterlimit="10" stroke-linecap="round" stroke-linejoin="round"/>
<path d="M206.043 147.448C206.043 147.448 198.043 140.848 192.343 141.448C184.943 142.248 185.043 140.548 180.343 141.548C178.143 142.048 174.143 143.648 169.943 148.848C165.743 154.048 164.243 156.748 164.243 156.748C164.243 156.748 159.843 147.348 157.143 148.848C154.443 150.248 160.843 164.748 163.043 166.248C165.243 167.748 171.743 165.148 174.043 166.248C176.343 167.348 182.543 165.348 182.543 165.348L191.043 163.248L193.243 165.648C193.943 166.448 195.043 166.648 196.043 166.348C198.043 165.548 201.443 163.648 203.643 158.948C207.143 151.648 206.043 147.448 206.043 147.448Z" fill="#B28D93"/>
<path d="M164.243 156.748C164.243 156.748 159.843 147.348 157.143 148.848C154.443 150.248 160.843 164.748 163.043 166.248C165.243 167.748 171.743 165.148 174.043 166.248" stroke="#896068" stroke-width="1.8" stroke-miterlimit="10" stroke-linecap="round" stroke-linejoin="round"/>
<path d="M195.743 153.848C195.743 153.848 192.843 161.448 189.243 166.348C185.543 171.248 180.243 171.448 177.843 169.848C175.443 168.348 178.643 157.248 179.343 154.548C180.043 151.848 182.243 149.348 183.643 152.348C184.743 154.648 183.143 160.148 183.443 164.548" fill="#B28D93"/>
<path d="M179.143 168.948C179.143 168.948 176.043 170.848 174.243 170.248C172.443 169.648 171.343 168.348 171.043 165.648C170.743 163.048 171.743 154.848 171.643 152.748C171.543 150.648 174.843 148.948 176.243 153.748C177.643 158.648 176.943 162.748 177.843 163.748" fill="#B28D93"/>
<path d="M172.343 167.548C172.343 167.548 170.043 168.748 167.643 168.948C165.243 169.148 164.143 167.548 163.343 162.648C162.443 156.748 161.743 150.748 163.843 150.448C165.943 150.148 167.043 153.348 167.843 156.648C168.643 159.948 169.143 162.048 169.643 162.148" fill="#B28D93"/>
<path d="M181.343 141.448C181.343 141.448 175.643 141.848 173.543 141.848C171.543 141.848 165.943 140.448 164.743 142.148C163.543 143.848 166.943 146.948 173.043 147.748C179.143 148.648 185.043 143.748 181.343 141.448Z" fill="#B28D93"/>
<path d="M195.743 170.948C195.743 170.948 203.643 173.548 209.143 165.648C214.043 158.648 212.143 152.648 212.143 152.648" stroke="#22272E" stroke-width="1.8" stroke-miterlimit="10" stroke-linecap="round" stroke-linejoin="round"/>
<path d="M237.143 217.948C237.143 217.948 235.243 215.648 240.143 214.248C245.143 212.848 264.143 212.048 261.843 217.548" stroke="#22272E" stroke-width="1.8" stroke-miterlimit="10" stroke-linecap="round" stroke-linejoin="round"/>
<path d="M195.743 153.848C195.743 153.848 192.843 161.448 189.243 166.348C185.543 171.248 180.243 171.448 177.843 169.848C175.443 168.348 178.643 157.248 179.343 154.548C180.043 151.848 182.243 149.348 183.643 152.348C184.743 154.648 183.143 160.148 183.443 164.548" stroke="#896068" stroke-width="1.8" stroke-miterlimit="10" stroke-linecap="round" stroke-linejoin="round"/>
<path d="M177.243 169.848C176.243 170.248 175.143 170.548 174.243 170.248C172.443 169.648 171.343 168.348 171.043 165.648C170.743 163.048 171.743 154.848 171.643 152.748C171.543 150.648 174.843 148.948 176.243 153.748C177.243 157.348 177.143 160.448 177.443 162.348" stroke="#896068" stroke-width="1.8" stroke-miterlimit="10" stroke-linecap="round" stroke-linejoin="round"/>
<path d="M171.543 167.848C170.643 168.248 169.243 168.748 167.643 168.848C165.243 169.048 164.143 167.448 163.343 162.548C162.443 156.648 161.743 150.648 163.843 150.348C165.943 150.048 167.043 153.248 167.843 156.548C168.643 159.848 169.143 161.948 169.643 162.048" stroke="#896068" stroke-width="1.8" stroke-miterlimit="10" stroke-linecap="round" stroke-linejoin="round"/>
<path d="M171.243 147.548C171.243 147.548 174.343 144.448 176.843 143.048" stroke="#896068" stroke-width="1.8" stroke-miterlimit="10" stroke-linecap="round" stroke-linejoin="round"/>
<path d="M292.143 93.6485C292.043 91.8485 292.143 90.0485 292.443 88.2485C293.243 84.0485 295.343 75.2485 298.843 72.3485C304.043 68.0485 306.843 74.4485 306.843 74.4485C306.843 74.4485 310.443 69.7485 313.843 70.2485C317.243 70.6485 319.043 74.7485 319.043 74.7485C319.043 74.7485 324.543 70.2485 327.843 72.4485C331.143 74.5485 332.043 78.0485 332.043 78.0485C332.043 78.0485 335.543 74.0485 339.243 75.6485C342.943 77.3485 343.643 86.7485 343.643 86.7485C343.643 86.7485 347.343 88.8485 348.143 96.1485C349.043 103.948 345.243 115.448 337.443 128.648C337.443 128.648 321.343 99.6485 311.143 95.5485C300.943 91.4485 301.043 99.0485 297.843 99.2485C295.043 99.3485 292.643 99.0485 292.143 93.6485Z" fill="#22272E"/>
<path d="M294.143 147.748C294.143 147.748 281.643 149.248 296.243 136.048C308.843 124.648 350.843 127.848 356.243 137.648C360.243 144.948 365.343 164.448 348.343 176.148C331.343 187.748 301.743 175.448 294.143 147.748Z" fill="#6DAFA7"/>
<path d="M318.143 144.048C318.143 144.048 329.843 143.548 339.643 143.148C349.343 142.648 363.743 142.948 371.643 153.748C380.743 166.048 367.043 208.448 365.043 219.248C363.043 230.048 370.743 243.048 370.343 251.948C370.143 257.048 363.743 270.448 335.343 272.948C303.243 275.848 274.943 269.248 271.843 250.748C269.743 238.348 277.943 229.648 275.143 209.448C273.643 198.848 271.743 164.548 275.343 154.848C278.943 145.148 284.943 141.948 318.143 144.048Z" fill="#FFE779"/>
<path d="M306.143 134.249C306.143 134.249 304.743 145.349 304.143 148.249C303.643 151.149 305.143 159.349 316.743 159.249C329.243 159.149 337.043 149.149 337.343 145.149C337.643 141.149 336.643 121.849 338.343 115.449C340.043 109.049 324.043 112.749 317.143 116.749C310.243 120.749 305.443 130.949 306.143 134.249Z" fill="#B28D93"/>
<path d="M326.843 133.349C320.343 134.849 312.343 140.449 305.443 139.349C305.243 141.049 304.943 142.849 304.743 144.449C313.943 145.949 322.643 140.149 326.843 133.349Z" fill="#896068"/>
<path d="M305.143 141.748C305.143 141.748 303.543 153.248 313.243 158.948C313.243 158.948 324.443 157.948 332.643 149.948C335.743 146.948 337.343 142.748 337.343 138.448V137.548C337.343 137.548 353.043 137.748 357.543 142.448C366.143 151.448 330.843 165.748 311.643 168.748C311.643 168.748 293.843 158.848 289.643 148.748C285.443 138.548 303.743 142.148 305.143 141.748Z" fill="#6DAFA7"/>
<path d="M308.342 162.448C308.342 162.448 303.742 175.949 302.542 191.749" stroke="#22272E" stroke-width="1.8" stroke-miterlimit="10" stroke-linecap="round" stroke-linejoin="round"/>
<path d="M304.843 192.949C304.943 191.649 304.243 187.649 302.943 187.549C301.643 187.449 300.143 191.249 300.043 192.549C299.943 193.849 300.943 195.049 302.243 195.149C303.543 195.349 304.743 194.349 304.843 192.949Z" fill="#6DAFA7"/>
<path d="M320.043 162.749C320.043 162.749 318.643 176.949 321.143 192.549" stroke="#22272E" stroke-width="1.8" stroke-miterlimit="10" stroke-linecap="round" stroke-linejoin="round"/>
<path d="M323.742 193.349C323.542 192.049 321.942 188.349 320.642 188.549C319.342 188.749 318.742 192.749 318.942 194.049C319.142 195.349 320.342 196.349 321.742 196.149C323.042 195.849 323.942 194.649 323.742 193.349Z" fill="#6DAFA7"/>
<path d="M283.543 238.348C284.843 236.348 288.843 229.148 289.643 221.248C289.843 219.248 291.643 217.848 293.543 218.048C300.943 218.848 317.443 220.348 329.843 219.248C331.843 219.048 333.543 220.548 333.743 222.548C334.143 226.848 336.043 234.148 343.443 241.248C344.043 241.748 344.443 242.448 344.543 243.248C345.043 245.948 346.143 252.548 345.843 258.148C345.443 265.048 299.043 269.748 283.043 255.548C282.243 254.848 281.843 253.748 281.843 252.748C281.943 250.048 282.343 244.448 283.043 239.848C283.143 239.148 283.343 238.748 283.543 238.348Z" fill="#6DAFA7"/>
<path d="M293.043 98.3485C293.043 98.3485 292.843 108.148 291.943 116.548C291.143 124.948 291.943 136.148 305.443 139.648C318.943 143.148 332.043 132.948 336.943 119.548C341.843 106.148 342.043 88.0485 324.843 80.9485C307.643 73.8485 293.843 82.7485 293.043 98.3485Z" fill="#B28D93"/>
<path d="M343.343 106.948C342.043 113.248 341.143 116.649 341.143 116.649L336.943 112.248C336.943 112.248 329.743 111.248 328.743 98.3485C328.543 96.1485 327.343 94.1485 325.343 93.1485C319.443 90.0485 316.343 94.6485 304.843 93.8485C300.943 93.5485 294.943 92.9485 295.143 86.9485C295.643 71.3485 319.743 72.5485 331.143 79.6485C342.543 86.6485 344.643 100.748 343.343 106.948Z" fill="#22272E"/>
<path d="M332.143 113.149C332.143 113.149 334.743 107.249 339.043 107.849C343.643 108.449 344.043 122.249 332.143 123.049" fill="#B28D93"/>
<path d="M299.343 105.448C299.543 106.848 299.543 108.248 299.443 109.548C299.343 110.948 299.143 112.348 298.643 113.648C298.543 113.948 298.343 114.348 298.243 114.648C298.143 114.948 298.043 115.148 297.943 115.448C297.843 115.948 297.843 116.348 298.043 116.748C298.443 117.648 299.643 118.348 300.943 118.848C300.243 119.048 299.543 119.048 298.743 118.848C298.043 118.648 297.243 118.248 296.743 117.548C296.443 117.248 296.243 116.748 296.143 116.348C296.043 115.848 296.043 115.448 296.143 115.048C296.243 114.648 296.443 114.148 296.543 113.948C296.643 113.648 296.843 113.348 296.943 113.148C297.943 110.648 298.443 108.048 299.343 105.448Z" fill="#22272E"/>
<path d="M304.943 127.048C304.943 127.048 305.643 125.548 307.343 126.848C309.043 128.148 309.743 127.648 310.643 126.548C311.543 125.448 311.943 127.548 313.943 126.748" stroke="#22272E" stroke-width="1.8" stroke-miterlimit="10" stroke-linecap="round" stroke-linejoin="round"/>
<path d="M313.543 102.948C313.043 102.348 312.943 100.148 314.943 99.2485C316.943 98.3485 320.243 99.8485 322.143 101.849C324.043 103.849 323.043 104.849 320.743 103.849C318.343 102.949 317.443 102.649 315.443 103.349C314.643 103.649 313.843 103.448 313.543 102.948Z" fill="#22272E"/>
<path d="M299.343 101.949C299.743 101.449 300.043 99.5485 298.643 98.5485C297.243 97.5485 294.943 98.5485 293.743 100.149C292.643 101.549 293.143 102.349 294.643 101.949C296.143 101.449 296.743 101.349 298.043 102.149C298.543 102.449 299.043 102.249 299.343 101.949Z" fill="#22272E"/>
<path d="M339.343 113.348C338.943 113.148 338.543 112.948 338.243 112.948C337.943 112.948 337.843 113.048 337.743 113.248C337.543 113.748 337.343 114.348 337.343 115.148C337.243 115.848 337.243 116.848 336.643 117.848C336.343 118.348 335.843 118.648 335.343 118.748C335.143 118.848 334.843 118.848 334.643 118.848C334.443 118.848 334.143 118.748 333.943 118.748C334.743 118.248 335.343 117.748 335.343 117.248C335.443 116.748 335.443 115.948 335.543 115.048C335.643 114.148 335.843 113.148 336.743 112.348C336.943 112.148 337.343 111.948 337.643 111.948C338.043 111.948 338.343 112.048 338.543 112.148C338.943 112.548 339.243 112.948 339.343 113.348Z" fill="#22272E"/>
<path d="M296.743 110.648C297.543 110.748 298.343 110.148 298.343 109.348L298.443 108.448C298.543 107.648 297.943 106.848 297.143 106.848C296.343 106.748 295.543 107.348 295.543 108.148L295.443 109.048C295.243 109.748 295.843 110.548 296.743 110.648Z" fill="#22272E"/>
<path d="M314.643 112.349C315.443 112.449 316.243 111.849 316.243 111.049L316.343 110.149C316.443 109.349 315.843 108.549 315.043 108.549C314.243 108.449 313.443 109.049 313.443 109.849L313.343 110.748C313.243 111.448 313.843 112.249 314.643 112.349Z" fill="#22272E"/>
<path d="M366.243 151.449C368.543 151.349 370.743 152.349 372.443 153.949C374.443 155.849 378.643 159.849 386.843 167.549C400.043 180.049 401.843 182.449 401.843 182.449C401.843 182.449 413.443 191.549 414.643 202.849C415.843 214.149 408.243 229.349 388.443 216.649C368.643 203.949 359.043 195.449 355.043 186.849C351.443 179.149 353.543 151.749 366.243 151.449Z" fill="#6DAFA7"/>
<path d="M395.943 193.349C395.943 193.349 400.443 182.949 410.843 173.049C421.243 163.149 433.543 150.949 435.843 148.549C438.143 146.049 443.743 140.649 451.343 146.549C459.043 152.449 454.543 162.749 454.543 162.749C454.543 162.749 441.243 184.149 430.243 202.349C419.243 220.549 408.043 226.549 393.843 219.649C379.543 212.649 395.943 193.349 395.943 193.349Z" fill="#6DAFA7"/>
<path d="M435.843 150.048C435.843 150.048 441.543 142.348 443.843 139.648C446.143 136.948 450.343 132.848 455.843 134.448C461.443 136.048 464.243 132.648 468.443 137.048C472.643 141.448 475.543 149.548 478.243 152.548C480.943 155.548 480.243 156.348 484.543 156.248C488.843 156.148 492.343 157.148 490.543 159.548C488.743 161.948 477.043 162.548 475.443 162.348C473.843 162.148 466.343 163.148 464.443 162.248C462.543 161.348 462.843 162.148 461.243 161.248C459.643 160.348 455.543 158.348 455.543 158.348C455.543 158.348 454.243 160.948 452.543 162.748C450.843 164.548 443.443 164.248 438.643 158.648C434.543 153.848 435.843 150.048 435.843 150.048Z" fill="#B28D93"/>
<path d="M478.243 152.648C480.943 155.648 480.243 156.448 484.543 156.348C488.843 156.248 492.343 157.248 490.543 159.648C488.743 162.048 477.043 162.648 475.443 162.448" stroke="#896068" stroke-width="1.8" stroke-miterlimit="10" stroke-linecap="round" stroke-linejoin="round"/>
<path d="M461.643 159.148C461.843 153.848 463.543 149.648 465.143 150.248C466.843 150.848 467.643 162.148 463.843 164.748C459.943 167.348 449.843 153.348 447.843 152.448" fill="#B28D93"/>
<path d="M463.343 163.848C463.343 163.848 465.443 167.948 468.543 165.948C471.643 164.048 474.743 154.748 475.343 152.748C476.043 150.748 472.143 149.948 469.643 154.848C467.243 159.748 465.343 160.448 465.343 160.448" fill="#B28D93"/>
<path d="M469.343 164.249C469.343 164.249 470.743 166.849 473.843 166.049C476.943 165.249 480.943 159.049 482.843 157.049C484.743 155.049 482.343 152.449 479.043 154.849C475.743 157.249 473.343 159.549 471.743 160.049" fill="#B28D93"/>
<path d="M467.043 135.948C467.043 135.948 469.443 137.148 472.543 141.348C475.743 145.548 481.643 146.148 482.343 148.348C483.043 150.548 476.743 151.448 471.743 149.048C466.843 146.548 464.843 136.448 467.043 135.948Z" fill="#B28D93"/>
<path d="M429.543 154.849C429.543 154.849 428.043 161.649 434.243 167.149C441.843 173.949 449.843 170.149 449.843 170.149" stroke="#22272E" stroke-width="1.8" stroke-miterlimit="10" stroke-linecap="round" stroke-linejoin="round"/>
<path d="M393.743 219.548C393.743 219.548 391.443 216.148 399.043 214.448C406.643 212.748 419.543 211.848 418.243 217.048" stroke="#22272E" stroke-width="1.8" stroke-miterlimit="10" stroke-linecap="round" stroke-linejoin="round"/>
<path d="M461.643 159.148C461.843 153.848 463.543 149.648 465.143 150.248C466.843 150.848 467.643 162.148 463.843 164.748C459.943 167.348 449.843 153.348 447.843 152.448" stroke="#896068" stroke-width="1.8" stroke-miterlimit="10" stroke-linecap="round" stroke-linejoin="round"/>
<path d="M468.543 165.948C471.643 164.048 474.743 154.748 475.343 152.748C476.043 150.748 472.143 149.948 469.643 154.848C468.243 157.748 466.943 159.148 466.243 159.848" stroke="#896068" stroke-width="1.8" stroke-miterlimit="10" stroke-linecap="round" stroke-linejoin="round"/>
<path d="M470.143 165.149C470.843 165.749 472.043 166.449 473.843 165.949C476.943 165.149 480.943 158.949 482.843 156.949C484.743 154.949 482.343 152.349 479.043 154.749C476.443 156.549 474.443 158.449 472.943 159.349" stroke="#896068" stroke-width="1.8" stroke-miterlimit="10" stroke-linecap="round" stroke-linejoin="round"/>
<path d="M476.743 150.448C476.743 150.448 474.043 145.848 473.043 144.548" stroke="#896068" stroke-width="1.8" stroke-miterlimit="10" stroke-linecap="round" stroke-linejoin="round"/>
<path d="M402.343 182.749C402.343 182.749 396.743 189.249 395.543 197.049" stroke="#22272E" stroke-width="1.8" stroke-miterlimit="10" stroke-linecap="round" stroke-linejoin="round"/>
<path d="M95.9427 211.948H61.3427C60.0427 211.948 58.6427 210.848 58.3427 209.548L53.3427 188.848C53.0427 187.548 53.8427 186.448 55.2427 186.448H89.8427C91.1427 186.448 92.5427 187.548 92.8427 188.848L97.8427 209.548C98.1427 210.848 97.3427 211.948 95.9427 211.948Z" fill="#6DAFA7"/>
<path d="M53.8428 186.948L73.4428 197.948C74.7428 198.748 76.2428 198.748 77.2428 197.948L91.5428 186.948" stroke="#22272E" stroke-width="1.8" stroke-miterlimit="10" stroke-linecap="round" stroke-linejoin="round"/>
<path d="M570.142 213.848L491.342 209.148C489.442 209.048 488.142 207.148 488.742 205.348L510.742 135.448C511.342 133.648 512.942 132.348 514.842 132.148L597.042 126.148C599.142 125.948 600.642 127.948 600.042 129.948L574.842 210.548C574.242 212.648 572.242 214.048 570.142 213.848Z" fill="#63737A"/>
<path d="M567.243 212.049L488.443 207.348C486.543 207.248 485.243 205.349 485.843 203.549L507.843 133.649C508.443 131.849 510.043 130.548 511.943 130.348L594.142 124.349C596.242 124.149 597.742 126.149 597.142 128.149L571.943 208.749C571.343 210.849 569.343 212.248 567.243 212.049Z" fill="#22272E"/>
<path d="M526.843 143.849L512.943 144.549C512.443 144.549 512.143 144.149 512.243 143.649L513.243 140.449C513.443 139.949 513.843 139.649 514.343 139.649L528.343 138.849C528.843 138.849 529.143 139.249 529.043 139.749L527.943 143.049C527.743 143.449 527.343 143.749 526.843 143.849Z" fill="#FFE779"/>
<path d="M497.843 198.149C496.443 198.049 495.443 196.749 495.843 195.349L502.443 174.549C502.743 173.649 503.543 173.049 504.443 173.049C505.843 173.049 506.943 174.449 506.443 175.849L499.843 196.649C499.743 197.549 498.843 198.249 497.843 198.149Z" fill="#FFE779"/>
<path d="M507.743 198.549C506.243 198.449 505.243 197.049 505.743 195.649L516.343 161.949C516.643 161.049 517.443 160.449 518.443 160.349C519.943 160.349 521.043 161.749 520.643 163.249L510.043 196.949C509.643 198.049 508.743 198.649 507.743 198.549Z" fill="#63737A"/>
<path d="M517.942 199.049C516.442 198.949 515.442 197.549 515.842 196.049L520.242 182.149C520.542 181.149 521.442 180.549 522.442 180.549C523.942 180.549 525.042 182.049 524.642 183.549L520.242 197.449C519.942 198.449 518.942 199.049 517.942 199.049Z" fill="#FFE779"/>
<path d="M528.543 199.449C526.943 199.349 525.943 197.849 526.343 196.349L538.843 156.549C539.143 155.549 540.043 154.949 541.043 154.849C542.643 154.849 543.843 156.349 543.343 157.949L530.843 197.749C530.543 198.849 529.543 199.549 528.543 199.449Z" fill="#6DAFA7"/>
<path d="M539.443 199.949C537.843 199.849 536.743 198.249 537.143 196.749L545.343 170.549C545.643 169.549 546.643 168.849 547.643 168.849C549.343 168.849 550.543 170.449 550.043 172.049L541.843 198.249C541.543 199.249 540.543 199.949 539.443 199.949Z" fill="#63737A"/>
<path d="M550.842 200.449C549.142 200.349 548.042 198.749 548.542 197.149L550.242 191.549C550.542 190.449 551.642 189.749 552.742 189.749C554.442 189.749 555.642 191.449 555.142 193.049L553.442 198.649C553.042 199.749 551.942 200.449 550.842 200.449Z" fill="#F4C2C9"/>
<path d="M562.543 200.949C560.843 200.849 559.643 199.149 560.143 197.549L568.643 170.549C568.943 169.449 570.043 168.649 571.143 168.649C572.943 168.649 574.243 170.349 573.743 172.049L565.243 199.049C564.843 200.249 563.743 200.949 562.543 200.949Z" fill="#FFE779"/>
<path d="M573.743 138.848C573.943 138.148 573.642 137.548 573.142 137.548C572.542 137.548 571.942 138.148 571.642 138.948C571.442 139.648 571.743 140.248 572.243 140.248C572.843 140.148 573.543 139.548 573.743 138.848Z" fill="#63737A"/>
<path d="M578.942 138.549C579.142 137.849 578.842 137.249 578.242 137.249C577.642 137.249 576.942 137.949 576.742 138.649C576.542 139.349 576.842 139.949 577.442 139.949C578.042 139.849 578.742 139.249 578.942 138.549Z" fill="#63737A"/>
<path d="M584.242 138.249C584.442 137.549 584.142 136.948 583.542 136.948C582.942 136.948 582.242 137.648 582.042 138.348C581.842 139.048 582.142 139.648 582.742 139.648C583.342 139.648 584.042 138.949 584.242 138.249Z" fill="#63737A"/>
<path d="M272.943 62.2485C272.943 62.2485 265.743 62.5485 263.943 55.9485C262.143 49.3485 268.943 46.3485 268.943 52.5485C268.943 58.7485 259.243 61.4485 255.243 56.2485C251.143 51.0485 255.943 47.0485 257.243 50.0485C258.643 53.0485 255.443 59.3485 249.743 57.4485" stroke="#6DAFA7" stroke-width="1.8" stroke-miterlimit="10" stroke-linecap="round" stroke-linejoin="round"/>
<path d="M358.943 72.5485C358.943 72.5485 371.243 71.8485 370.443 62.9485C369.643 54.0485 361.643 70.5485 372.343 70.3485C382.943 70.1485 382.443 60.0485 379.243 59.3485C376.043 58.6485 376.843 66.4485 382.743 65.9485C388.643 65.4485 389.543 61.8485 389.543 61.8485" stroke="#6DAFA7" stroke-width="1.8" stroke-miterlimit="10" stroke-linecap="round" stroke-linejoin="round"/>
<path d="M318.343 55.2485C318.343 53.3485 316.843 51.8485 314.943 51.8485C313.043 51.8485 311.543 53.3485 311.543 55.2485C311.543 57.1485 313.043 58.6485 314.943 58.6485C316.843 58.6485 318.343 57.1485 318.343 55.2485Z" fill="#6DAFA7"/>
<path d="M334.743 18.3485C335.143 24.1485 333.043 29.4485 329.543 33.2485C325.743 37.3485 323.643 42.7485 323.643 48.3485V51.8485C323.643 53.7485 322.043 55.3485 320.143 55.3485H309.943C308.043 55.3485 306.443 53.7485 306.443 51.8485V48.3485C306.443 42.7485 304.343 37.3485 300.543 33.3485C297.243 29.8485 295.243 25.0485 295.243 19.8485C295.243 8.44851 304.943 -0.751489 316.443 0.0485112C326.143 0.648511 334.043 8.54851 334.743 18.3485Z" fill="#FFE779"/>
<path d="M306.343 48.3485H323.543" stroke="#22272E" stroke-width="1.8" stroke-miterlimit="10" stroke-linecap="round" stroke-linejoin="round"/>
<path d="M306.343 51.7485H323.543" stroke="#22272E" stroke-width="1.8" stroke-miterlimit="10" stroke-linecap="round" stroke-linejoin="round"/>
<path d="M313.143 48.3485V20.9485C313.143 18.4485 310.343 16.9485 308.243 18.3485C306.643 19.4485 306.443 21.8485 307.943 23.2485L309.143 24.3485" stroke="#22272E" stroke-width="1.8" stroke-miterlimit="10" stroke-linecap="round" stroke-linejoin="round"/>
<path d="M316.743 48.3485V20.9485C316.743 18.4485 319.543 16.9485 321.643 18.3485C323.243 19.4485 323.443 21.8485 321.943 23.2485L320.743 24.3485" stroke="#22272E" stroke-width="1.8" stroke-miterlimit="10" stroke-linecap="round" stroke-linejoin="round"/>
<path d="M234.743 123.849L225.943 43.2485C225.643 40.8485 223.743 38.8485 221.343 38.5485L107.243 23.6485C104.643 23.3485 102.443 25.5485 102.743 28.1485L113.943 124.249C114.243 126.949 116.543 128.949 119.243 128.949L230.643 128.349C233.143 128.349 235.043 126.249 234.743 123.849Z" fill="#63737A"/>
<path d="M239.842 123.449L231.042 42.2485C230.742 39.7485 228.842 37.8485 226.442 37.5485L111.542 22.5485C108.942 22.2485 106.642 24.4485 106.942 27.0485L118.242 123.849C118.542 126.549 120.842 128.549 123.542 128.549L235.842 127.949C238.242 127.949 240.042 125.849 239.842 123.449Z" fill="#22272E"/>
<path d="M225.343 115.449H133.943L133.643 112.449L152.943 85.2485C155.243 81.9485 159.543 80.6485 163.343 82.2485L172.143 85.8485C176.143 87.4485 180.643 85.9485 182.843 82.3485L186.743 75.9485C188.943 72.3485 193.343 70.8485 197.243 72.3485C198.243 72.7485 199.343 72.9485 200.343 72.9485C203.043 72.9485 205.543 71.7485 207.243 69.5485L219.243 53.8485L225.343 115.449Z" fill="#FFE779"/>
<path d="M133.643 112.449L126.743 52.6485" stroke="#6DAFA7" stroke-width="1.8" stroke-miterlimit="10" stroke-linecap="round" stroke-linejoin="round"/>
<path d="M133.343 109.749L149.043 68.7485C150.643 64.4485 155.443 62.3485 159.743 64.0485L167.843 67.2485C171.143 68.5485 174.943 67.5485 177.243 64.8485L182.643 58.2485C185.643 54.6485 190.943 54.1485 194.443 57.3485C197.143 59.8485 201.243 60.1485 204.343 58.1485L218.943 48.8485" stroke="#6DAFA7" stroke-width="1.8" stroke-miterlimit="10" stroke-linecap="round" stroke-linejoin="round"/>
<path d="M126.043 44.7485L125.443 39.9485C125.343 39.2485 125.943 38.5485 126.743 38.6485L148.443 40.9485C149.143 41.0485 149.643 41.5485 149.743 42.1485L150.443 46.5485C150.543 47.1485 150.043 47.6485 149.443 47.5485L127.343 45.9485C126.643 46.0485 126.143 45.4485 126.043 44.7485Z" fill="#6DAFA7"/>
<path d="M479.943 91.1485C456.843 113.549 428.143 117.949 417.743 102.549C408.543 88.9485 417.243 64.7485 436.043 47.2485C454.543 30.0485 478.943 22.9485 492.143 32.0485C507.043 42.2485 502.643 69.1485 479.943 91.1485Z" fill="#F8AB5D"/>
<path d="M476.643 87.7485C453.543 110.148 424.843 114.549 414.443 99.1485C405.243 85.5485 413.943 61.3485 432.743 43.8485C451.243 26.6485 475.643 19.5485 488.843 28.6485C503.843 38.9485 499.343 65.8485 476.643 87.7485Z" fill="#FFE779"/>
<path d="M466.943 78.0485C453.043 91.3485 435.643 94.6485 428.643 85.7485C422.243 77.5485 427.343 62.0485 439.543 50.6485C451.643 39.3485 467.343 35.0485 475.443 41.4485C484.143 48.2485 480.643 64.8485 466.943 78.0485Z" fill="#6DAFA7"/>
<path d="M458.043 69.1485C452.543 74.3485 445.543 75.8485 442.543 72.5485C439.643 69.3485 441.543 62.8485 446.743 57.9485C451.943 53.0485 458.643 51.4485 461.843 54.3485C465.143 57.2485 463.543 63.9485 458.043 69.1485Z" fill="#F4C2C9"/>
<path d="M422.543 35.5485C420.443 37.5485 417.043 37.3485 415.143 35.2485L397.343 12.5485C396.443 11.3485 396.543 9.6485 397.643 8.6485C398.743 7.6485 400.443 7.6485 401.543 8.6485L422.743 28.1485C424.843 30.2485 424.743 33.5485 422.543 35.5485Z" fill="#22272E"/>
<path d="M401.443 16.8485L395.743 17.6485C394.143 17.8485 393.543 19.8485 394.743 20.8485C398.243 23.9485 402.543 25.9485 407.143 26.7485L410.043 27.2485C410.343 27.3485 410.643 26.9485 410.443 26.6485L403.243 17.5485C402.743 17.0485 402.143 16.7485 401.443 16.8485Z" fill="#6DAFA7"/>
<path d="M405.643 13.0485L406.943 7.44849C407.243 5.94849 409.243 5.44849 410.243 6.74849C413.043 10.4485 414.743 14.8485 415.143 19.5485L415.343 22.4485C415.343 22.7485 414.943 22.9485 414.743 22.7485L406.243 14.9485C405.643 14.3485 405.443 13.6485 405.643 13.0485Z" fill="#6DAFA7"/>
<path d="M421.743 34.6485L427.443 40.7485" stroke="#22272E" stroke-width="1.8" stroke-miterlimit="10" stroke-linecap="round" stroke-linejoin="round"/>
<path d="M541.843 87.2485V72.6485C541.843 71.9485 541.243 71.3485 540.543 71.3485H533.943C533.243 71.3485 532.643 71.9485 532.643 72.6485V87.2485H528.843C527.843 87.2485 527.243 88.3485 527.743 89.1485L536.043 102.249C536.543 103.049 537.643 103.049 538.143 102.249L546.443 89.1485C546.943 88.3485 546.343 87.2485 545.343 87.2485H541.843Z" fill="#6DAFA7"/>
<path d="M570.843 103.048V88.4485C570.843 87.7485 570.243 87.1485 569.543 87.1485H562.943C562.243 87.1485 561.643 87.7485 561.643 88.4485V103.048H557.843C556.843 103.048 556.243 104.148 556.743 104.948L565.043 118.048C565.543 118.848 566.643 118.848 567.143 118.048L575.443 104.948C575.943 104.148 575.343 103.048 574.343 103.048H570.843Z" fill="#22272E"/>
<path d="M93.1427 160.649C93.6427 158.849 92.5427 156.948 90.6427 156.448C88.8427 155.948 86.9427 157.048 86.4427 158.948C85.9427 160.748 87.0427 162.649 88.9427 163.149C90.7427 163.649 92.6427 162.549 93.1427 160.649Z" fill="#22272E"/>
<path d="M97.3426 152.449L97.5426 151.549C98.3426 148.649 96.5426 145.648 93.6426 144.848C90.7426 144.048 87.7426 145.849 86.9426 148.749L86.7426 149.649C86.4426 150.649 85.9426 151.548 85.2426 152.348C84.6426 152.948 84.0426 153.649 83.4426 154.249C82.1426 155.649 82.8426 157.949 84.6426 158.449L89.6426 159.749L94.6426 161.049C96.4426 161.549 98.2426 159.849 97.7426 158.049C97.5426 157.149 97.3426 156.249 97.1426 155.449C97.0426 154.549 97.0426 153.449 97.3426 152.449Z" fill="#6DAFA7"/>
<path d="M0.442627 115.948C0.442627 115.948 37.8426 107.448 37.2426 87.6485L94.4426 92.1485C94.4426 92.1485 93.7426 116.448 56.4426 128.848C56.3426 128.848 16.6426 123.548 0.442627 115.948Z" fill="#FFE779"/>
<path d="M48.3425 115.048L58.4425 116.448" stroke="#22272E" stroke-width="1.8" stroke-miterlimit="10" stroke-linecap="round" stroke-linejoin="round"/>
<path d="M52.5427 111.048L64.2427 112.648" stroke="#22272E" stroke-width="1.8" stroke-miterlimit="10" stroke-linecap="round" stroke-linejoin="round"/>
<path d="M42.5427 101.448C42.5427 101.448 68.3427 105.048 72.9427 105.648" stroke="#22272E" stroke-width="1.8" stroke-miterlimit="10" stroke-linecap="round" stroke-linejoin="round"/>
<path d="M47.1427 107.648C45.4427 110.048 42.0427 113.948 36.5427 116.248C36.3427 116.348 36.0427 116.348 35.7427 116.348C31.8427 115.548 27.8427 114.648 24.0427 113.648C23.4427 113.548 23.4427 112.748 23.9427 112.548C26.4427 111.448 31.3427 109.148 35.6427 105.348C35.9427 105.048 36.3427 104.948 36.6427 105.048C38.7427 105.448 42.3427 105.948 46.7427 106.648C47.1427 106.848 47.4427 107.348 47.1427 107.648Z" fill="#22272E"/>
<path d="M64.1426 96.2485C63.9426 97.3485 63.5426 98.3485 63.3426 98.9485C63.1426 99.3485 62.8426 99.5485 62.4426 99.4485L42.9426 97.3485C42.3426 97.2485 42.0426 96.7485 42.2426 96.1485C42.5426 95.4485 42.7426 94.7485 42.8426 93.9485C42.9426 93.5485 43.3426 93.2485 43.7426 93.2485L63.3426 95.0485C63.8426 95.3485 64.2426 95.7485 64.1426 96.2485Z" fill="#6DAFA7"/>
<path d="M403.643 126.549C399.743 135.049 390.343 140.649 383.943 138.949C378.343 137.449 377.243 130.749 380.843 124.149C384.243 117.749 391.343 112.749 397.343 112.549C404.043 112.449 407.343 118.549 403.643 126.549Z" fill="#F8AB5D"/>
<path d="M401.643 124.849C397.743 133.349 388.343 138.949 381.943 137.249C376.343 135.749 375.243 129.049 378.843 122.449C382.243 116.049 389.343 111.049 395.343 110.849C402.143 110.649 405.343 116.749 401.643 124.849Z" fill="#FFE779"/>
<path d="M398.443 124.549C395.443 130.849 388.543 135.149 383.643 134.049C379.243 133.049 378.243 127.949 381.043 122.649C383.743 117.649 389.343 113.649 393.943 113.649C399.043 113.649 401.343 118.449 398.443 124.549Z" fill="#F8AB5D"/>
<path d="M385.143 129.949L385.543 129.249C385.643 128.949 385.643 128.749 385.443 128.649C384.943 128.449 384.543 128.249 384.343 127.949C384.243 127.849 384.243 127.549 384.443 127.249L384.543 127.149C384.743 126.849 385.143 126.749 385.243 126.949C385.543 127.249 386.043 127.549 386.643 127.649C387.643 127.849 388.743 127.149 389.243 126.249C389.743 125.349 389.443 124.649 388.643 124.049C387.543 123.249 387.043 122.349 387.843 120.949C388.443 119.749 389.643 118.849 390.943 118.549C391.143 118.549 391.443 118.349 391.543 118.049L391.943 117.349C392.043 117.049 392.443 116.849 392.643 116.849C392.843 116.849 392.943 117.049 392.843 117.349L392.543 117.949C392.443 118.249 392.443 118.449 392.743 118.449C393.143 118.549 393.443 118.649 393.743 118.849C393.943 118.949 393.843 119.249 393.643 119.549L393.543 119.649C393.343 119.949 392.943 120.049 392.743 119.949C392.443 119.749 392.043 119.549 391.443 119.549C390.343 119.449 389.543 120.149 389.243 120.849C388.843 121.649 389.143 122.149 390.043 122.849C391.243 123.749 391.543 124.749 390.743 126.249C390.143 127.549 388.843 128.648 387.343 128.848C387.143 128.848 386.843 129.048 386.743 129.348L386.343 130.149C386.143 130.449 385.843 130.649 385.643 130.649C385.043 130.449 384.943 130.249 385.143 129.949Z" fill="#FFE779"/>
<path d="M81.8425 272.948H72.0425L71.5425 290.749H80.9425L81.8425 272.948Z" fill="#6DAFA7"/>
<path d="M71.5424 290.749L65.6424 469.949C65.5424 471.849 67.0424 473.349 68.9424 473.349C70.7424 473.349 72.1424 471.949 72.2424 470.249L80.9424 290.749H71.5424Z" fill="#B8D8C7"/>
<path d="M568.142 272.948H558.442L559.242 290.749H568.742L568.142 272.948Z" fill="#6DAFA7"/>
<path d="M559.242 290.749L567.942 470.249C568.042 472.049 569.442 473.349 571.242 473.349C573.142 473.349 574.642 471.849 574.542 469.949L568.642 290.749H559.242Z" fill="#B8D8C7"/>
<path d="M107.942 248.648L102.442 417.148C102.342 418.748 103.642 420.048 105.242 420.048C106.742 420.048 108.042 418.848 108.042 417.348L116.242 248.648H107.942Z" fill="#B8D8C7"/>
<path d="M532.242 248.648L537.742 417.148C537.842 418.748 536.542 420.048 534.942 420.048C533.442 420.048 532.142 418.848 532.142 417.348L523.942 248.648H532.242Z" fill="#B8D8C7"/>
<path d="M595.843 269.148H44.3425L102.143 241.648H538.143L595.843 269.148Z" fill="white"/>
<path d="M595.843 269.148H44.3425V276.648H595.843V269.148Z" fill="#B8D8C7"/>
<path d="M496.343 242.549C496.343 242.549 491.643 240.249 490.043 235.649C488.443 231.049 491.243 227.949 492.443 228.249C493.543 228.449 495.443 234.349 496.943 234.349C498.443 234.349 498.143 224.149 501.143 223.049C504.043 222.049 503.843 233.149 503.943 234.049C504.143 236.349 508.043 231.349 509.443 229.349C511.143 226.849 516.643 235.849 505.143 242.549C505.143 242.549 500.743 243.449 496.343 242.549Z" fill="#6DAFA7"/>
<path d="M515.743 243.649V244.049C515.643 249.949 514.443 255.849 512.343 261.449C511.943 262.349 511.043 263.049 510.043 263.049H492.043C491.043 263.049 490.143 262.449 489.743 261.449C487.643 255.849 486.443 250.049 486.343 244.049V243.649C486.343 242.549 487.143 241.749 488.243 241.749H513.843C514.943 241.649 515.743 242.549 515.743 243.649Z" fill="#22272E"/>
<path d="M448.143 236.249C440.343 237.049 438.343 258.149 423.543 260.249C423.543 260.249 420.843 260.349 416.443 260.449C403.743 260.849 377.543 261.449 366.943 260.549C368.343 260.549 369.843 260.449 371.543 260.249C376.143 259.649 379.443 257.149 382.143 254.149C388.143 247.149 390.843 236.849 396.143 236.349H448.143V236.249Z" fill="#22272E"/>
<path d="M382.043 254.149C379.343 257.249 376.043 259.649 371.443 260.249C369.843 260.449 368.243 260.549 366.843 260.549C355.643 260.549 352.343 254.349 352.343 254.349C352.343 254.349 370.243 255.149 382.043 254.149Z" fill="#6DAFA7"/>
<path d="M306.443 262.649H233.843V257.249H311.843C311.843 260.249 309.443 262.649 306.443 262.649Z" fill="#22272E"/>
<path d="M249.443 262.648H137.543C133.943 262.648 130.743 260.148 129.843 256.648L111.443 183.348C110.743 180.648 112.843 177.948 115.643 177.948H227.543C231.143 177.948 234.343 180.448 235.243 183.948L253.643 257.249C254.343 259.949 252.343 262.648 249.443 262.648Z" fill="#22272E"/>
<path d="M183.338 226.639C185.985 223.599 184.857 218.282 180.817 214.764C176.777 211.246 171.356 210.859 168.708 213.899C166.061 216.94 167.189 222.256 171.229 225.774C175.269 229.292 180.69 229.68 183.338 226.639Z" fill="#63737A"/>
<path d="M312.543 251.849H288.843C287.743 251.849 286.743 250.949 286.743 249.749C286.743 243.749 291.643 238.849 297.643 238.849H303.643C309.643 238.849 314.543 243.749 314.543 249.749C314.543 250.949 313.643 251.849 312.543 251.849Z" fill="#22272E"/>
<path d="M456.943 254.249C454.743 253.849 451.143 252.749 449.943 248.749C448.743 244.749 457.843 236.049 460.643 236.049C463.443 236.149 468.543 238.849 471.243 242.649C473.843 246.449 468.943 248.849 469.543 250.649C470.143 252.549 464.543 255.749 456.943 254.249Z" fill="white" stroke="#B8D8C7" stroke-width="1.8" stroke-miterlimit="10" stroke-linecap="round" stroke-linejoin="round"/>
<path d="M449.943 248.749C449.943 248.749 454.643 252.149 456.843 251.149C459.043 250.249 460.743 247.349 464.643 247.749C468.543 248.049 467.743 241.349 464.643 240.249C461.543 239.149 459.343 246.149 456.843 246.249C454.443 246.349 453.743 244.749 456.043 242.949" fill="white"/>
<path d="M449.943 248.749C449.943 248.749 454.643 252.149 456.843 251.149C459.043 250.249 460.743 247.349 464.643 247.749C468.543 248.049 467.743 241.349 464.643 240.249C461.543 239.149 459.343 246.149 456.843 246.249C454.443 246.349 453.743 244.749 456.043 242.949" stroke="#B8D8C7" stroke-width="1.8" stroke-miterlimit="10" stroke-linecap="round" stroke-linejoin="round"/>
<path d="M445.243 260.449C445.243 260.449 447.743 257.549 446.643 255.949C445.543 254.349 444.643 253.849 444.143 252.949C443.443 251.549 443.543 248.549 441.943 247.049C440.443 245.649 437.743 247.949 431.743 247.149C427.143 246.549 422.943 253.649 424.543 255.649C426.043 257.649 426.743 258.049 426.743 258.049C426.743 258.049 425.843 259.849 426.343 260.949C426.843 262.049 430.343 263.649 435.643 264.149C441.043 264.749 445.243 260.449 445.243 260.449Z" fill="white" stroke="#B8D8C7" stroke-width="1.8" stroke-miterlimit="10" stroke-linecap="round" stroke-linejoin="round"/>
<path d="M426.743 258.149C426.743 258.149 431.543 261.849 434.943 261.049C438.343 260.249 441.643 254.049 441.443 252.349C441.243 250.649 439.843 249.849 436.443 252.949C433.043 256.049 430.443 255.249 430.743 252.549" fill="white"/>
<path d="M426.743 258.149C426.743 258.149 431.543 261.849 434.943 261.049C438.343 260.249 441.643 254.049 441.443 252.349C441.243 250.649 439.843 249.849 436.443 252.949C433.043 256.049 430.443 255.249 430.743 252.549" stroke="#B8D8C7" stroke-width="1.8" stroke-miterlimit="10" stroke-linecap="round" stroke-linejoin="round"/>
</svg>
